<svg xmlns="http://www.w3.org/2000/svg" width="48" height="48" viewBox="0 0 48 48">
  <g id="Groupe_2055" data-name="Groupe 2055" transform="translate(7882.64 -9719.867)">
    <g id="Groupe_2042" data-name="Groupe 2042" transform="translate(-7879.066 9723.437)">
      <g id="Groupe_2039" data-name="Groupe 2039" transform="translate(0 0)">
        <g id="Groupe_2038" data-name="Groupe 2038" transform="translate(0 0)">
          <path id="Tracé_6146" data-name="Tracé 6146" d="M980.422,351.159c-.016.07-.031.14-.048.21a1.67,1.67,0,0,1-1.572,1.287,14.55,14.55,0,0,1-1.528-.01,1.645,1.645,0,0,1-1.5-1.5,14.367,14.367,0,0,1,0-1.616,1.664,1.664,0,0,1,1.423-1.512.45.45,0,0,0,.064-.019h1.649a.329.329,0,0,0,.055.018,1.689,1.689,0,0,1,1.4,1.244c.022.082.039.166.058.249Zm-2.325-2.31c-.205,0-.41,0-.616,0a.843.843,0,0,0-.874.877q0,.605,0,1.211a.847.847,0,0,0,.876.877q.606,0,1.211,0a.842.842,0,0,0,.878-.873q0-.61,0-1.221a.838.838,0,0,0-.869-.87C978.5,348.848,978.3,348.849,978.1,348.849Z" transform="translate(-970.249 -348)" fill="#d0d2d0"/>
          <path id="Tracé_6147" data-name="Tracé 6147" d="M771.159,348c.073.017.147.033.219.051a1.668,1.668,0,0,1,1.278,1.569,14.828,14.828,0,0,1-.01,1.528,1.646,1.646,0,0,1-1.5,1.5,14.59,14.59,0,0,1-1.616,0,1.667,1.667,0,0,1-1.511-1.414.64.64,0,0,0-.02-.074V349.51a.338.338,0,0,0,.018-.055,1.691,1.691,0,0,1,1.244-1.4c.082-.022.166-.039.249-.058Zm-.821.851c-.228,0-.457-.006-.685,0a.826.826,0,0,0-.8.8q-.014.675,0,1.35a.829.829,0,0,0,.811.806q.665.011,1.33,0a.837.837,0,0,0,.818-.821q.01-.66,0-1.32a.833.833,0,0,0-.809-.818C770.782,348.846,770.56,348.851,770.339,348.851Z" transform="translate(-768 -348)" fill="#d0d2d0"/>
          <path id="Tracé_6148" data-name="Tracé 6148" d="M977.072,560.271c-.1-.024-.2-.043-.3-.073a1.646,1.646,0,0,1-1.194-1.478,12.006,12.006,0,0,1,0-1.537,1.645,1.645,0,0,1,1.6-1.567,13.552,13.552,0,0,1,1.518.008,1.669,1.669,0,0,1,1.511,1.415.593.593,0,0,0,.02.074v1.649a.235.235,0,0,0-.017.045,1.664,1.664,0,0,1-1.085,1.355,3.416,3.416,0,0,1-.408.11Zm2.31-2.327h0c0-.215,0-.43,0-.645a.84.84,0,0,0-.859-.842q-.62,0-1.241,0a.845.845,0,0,0-.864.868q0,.611,0,1.221a.841.841,0,0,0,.866.875q.615.005,1.231,0a.839.839,0,0,0,.868-.872C979.383,558.347,979.381,558.146,979.381,557.944Z" transform="translate(-970.058 -550.098)" fill="#d0d2d0"/>
          <path id="Tracé_6149" data-name="Tracé 6149" d="M768,557.229c.017-.073.032-.147.051-.22a1.677,1.677,0,0,1,1.589-1.28c.5-.016,1.007-.018,1.508.012a1.645,1.645,0,0,1,1.5,1.5,14.191,14.191,0,0,1,0,1.607,1.661,1.661,0,0,1-1.434,1.523.3.3,0,0,0-.054.018H769.51a.342.342,0,0,0-.055-.018,1.7,1.7,0,0,1-1.409-1.281c-.017-.07-.031-.141-.046-.211Zm.849.822c0,.205,0,.41,0,.615a.838.838,0,0,0,.868.872q.615,0,1.231,0a.842.842,0,0,0,.866-.875q0-.606,0-1.211a.846.846,0,0,0-.874-.878q-.606,0-1.211,0a.843.843,0,0,0-.879.872C768.848,557.647,768.85,557.849,768.849,558.05Z" transform="translate(-768 -550.215)" fill="#d0d2d0"/>
          <path id="Tracé_6150" data-name="Tracé 6150" d="M1095.055,348.018A.33.33,0,0,1,1095,348" transform="translate(-1086.337 -348)" fill="#d0d2d0"/>
          <path id="Tracé_6151" data-name="Tracé 6151" d="M1149.876,395.86c-.019-.083-.036-.166-.058-.249" transform="translate(-1139.703 -394.35)" fill="#d0d2d0"/>
        </g>
      </g>
    </g>
    <path id="Tracé_6161" data-name="Tracé 6161" d="M946.254,536.362v-.811c.012-.061.026-.121.035-.181.062-.44.091-.887.189-1.318a8.654,8.654,0,0,1,16.98,3.32,8.664,8.664,0,0,1-7.236,7.14c-.244.036-.487.069-.731.1h-.981c-.234-.026-.468-.047-.7-.079a8.66,8.66,0,0,1-7.451-7.34C946.318,536.919,946.288,536.64,946.254,536.362Zm2.881-5.437a7.657,7.657,0,0,0,10.814,10.79Zm11.524,10.051a7.645,7.645,0,0,0-10.772-10.8Z" transform="translate(-8828.894 9192.564)" fill="#575757"/>
  </g>
</svg>
