<svg id="Calque_1" data-name="Calque 1" xmlns="http://www.w3.org/2000/svg" viewBox="0 0 17.32 17.32" width="64" height="64"><g id="Groupe_2042" data-name="Groupe 2042"><g id="Groupe_2039" data-name="Groupe 2039"><g id="Groupe_2038" data-name="Groupe 2038"><path id="Tracé_6146" data-name="Tracé 6146" d="M14.55,8.53c0,.07,0,.14-.05.21A1.66,1.66,0,0,1,12.93,10a13,13,0,0,1-1.53,0,1.65,1.65,0,0,1-1.5-1.5,14.41,14.41,0,0,1,0-1.61,1.68,1.68,0,0,1,1.43-1.52h1.76a1.69,1.69,0,0,1,1.4,1.25,1.83,1.83,0,0,1,.06.25ZM12.23,6.22h-.62a.84.84,0,0,0-.88.81.13.13,0,0,0,0,.06V8.3a.84.84,0,0,0,.81.88h1.27a.84.84,0,0,0,.88-.8V7.09a.83.83,0,0,0-.8-.87h-.67Z" transform="translate(-0.8 -1.78)" style="fill:#d0d2d0"/><path id="Tracé_6147" data-name="Tracé 6147" d="M7.54,5.37l.22,0A1.65,1.65,0,0,1,9,7,12.83,12.83,0,0,1,9,8.51,1.63,1.63,0,0,1,7.52,10a14.41,14.41,0,0,1-1.61,0A1.65,1.65,0,0,1,4.4,8.6a.19.19,0,0,1,0-.07V6.88s0,0,0-.06a1.72,1.72,0,0,1,1.25-1.4l.25-.06Zm-.82.85H6a.82.82,0,0,0-.8.8q0,.68,0,1.35a.82.82,0,0,0,.81.8H7.37a.84.84,0,0,0,.82-.82q0-.66,0-1.32a.84.84,0,0,0-.81-.82Z" transform="translate(-0.8 -1.78)" style="fill:#d0d2d0"/><path id="Tracé_6148" data-name="Tracé 6148" d="M11.39,15.54l-.3-.07A1.65,1.65,0,0,1,9.9,14a9.9,9.9,0,0,1,0-1.54,1.65,1.65,0,0,1,1.6-1.57c.5,0,1,0,1.52,0a1.68,1.68,0,0,1,1.51,1.42.19.19,0,0,0,0,.07V14s0,0,0,.05a1.66,1.66,0,0,1-1.09,1.35,3,3,0,0,1-.4.11Zm2.31-2.33h0v-.64a.83.83,0,0,0-.84-.84H11.6a.83.83,0,0,0-.86.82v1.26a.84.84,0,0,0,.8.88h1.29a.83.83,0,0,0,.87-.81v-.67Z" transform="translate(-0.8 -1.78)" style="fill:#d0d2d0"/><path id="Tracé_6149" data-name="Tracé 6149" d="M4.38,12.38a1.74,1.74,0,0,1,0-.22A1.68,1.68,0,0,1,6,10.88c.5,0,1,0,1.51,0A1.66,1.66,0,0,1,9,12.39,14.41,14.41,0,0,1,9,14a1.66,1.66,0,0,1-1.44,1.52l0,0H5.89l-.06,0a1.71,1.71,0,0,1-1.41-1.28c0-.07,0-.14,0-.21Zm.85.82v.62a.84.84,0,0,0,.8.87h1.3a.84.84,0,0,0,.86-.82V12.6a.83.83,0,0,0-.81-.87H6.11a.84.84,0,0,0-.88.8v.67Z" transform="translate(-0.8 -1.78)" style="fill:#d0d2d0"/><path id="Tracé_6150" data-name="Tracé 6150" d="M13.1,5.38H13" transform="translate(-0.8 -1.78)" style="fill:#d0d2d0"/><path id="Tracé_6151" data-name="Tracé 6151" d="M14.55,6.88l-.06-.25" transform="translate(-0.8 -1.78)" style="fill:#d0d2d0"/></g></g></g><path id="Tracé_6161" data-name="Tracé 6161" d="M.8,10.86v-.81a1.62,1.62,0,0,0,0-.19C.9,9.42.93,9,1,8.55A8.65,8.65,0,1,1,10.77,19l-.73.1h-1L8.36,19A8.66,8.66,0,0,1,.91,11.69C.87,11.41.84,11.13.8,10.86ZM3.68,5.42A7.66,7.66,0,0,0,14.5,16.21ZM15.21,15.47A7.64,7.64,0,0,0,4.44,4.67Z" transform="translate(-0.8 -1.78)" style="fill:#575757"/></svg>