<svg xmlns="http://www.w3.org/2000/svg" width="26.643" height="26.676" viewBox="0 0 26.643 26.676">
  <g id="Groupe_2037" data-name="Groupe 2037" transform="translate(20695.602 299.283)">
    <path id="Tracé_4508" data-name="Tracé 4508" d="M777.263,367.982c-.039.423-.077.82-.112,1.217s-.182.547-.576.582-.793.074-1.219.113c-.034.358-.08.71-.1,1.064a1.038,1.038,0,0,1-.332.746c-.724.7-1.434,1.414-2.138,2.135a.635.635,0,0,1-.694.189c-.7-.2-1.413-.377-2.121-.556a.563.563,0,0,1-.448-.445c-.182-.725-.367-1.45-.566-2.171a.583.583,0,0,1,.179-.627q2.476-2.467,4.945-4.943,2.878-2.878,5.758-5.754a.287.287,0,0,0,.077-.379,7.537,7.537,0,1,1,8.347,4.407,7.382,7.382,0,0,1-4.4-.471l-.242-.1c-.772.773-1.562,1.526-2.3,2.324a1.715,1.715,0,0,1-1.46.688.609.609,0,0,0-.124.016c-.574.071-.574.071-.627.654-.02.224-.039.448-.059.671a.473.473,0,0,1-.475.506C778.148,367.9,777.718,367.937,777.263,367.982Zm.917-.993c.043-.454.083-.876.122-1.3a.475.475,0,0,1,.488-.494c.422-.04.847-.064,1.267-.119a.717.717,0,0,0,.387-.179c.884-.869,1.758-1.75,2.635-2.627.337-.337.417-.349.85-.141a6.564,6.564,0,0,0,3.886.6,6.645,6.645,0,1,0-6.977-3.72c.248.519.242.553-.173.969q-5.313,5.316-10.63,10.629a.35.35,0,0,0-.108.391c.137.488.254.982.395,1.468a.348.348,0,0,0,.2.208c.5.146,1.012.267,1.516.407a.293.293,0,0,0,.328-.088c.613-.623,1.238-1.234,1.849-1.859a.593.593,0,0,0,.144-.321c.056-.446.087-.894.139-1.34a.431.431,0,0,1,.449-.44c.356-.037.712-.081,1.068-.1.215-.009.283-.1.292-.3.014-.324.053-.647.087-.969.046-.431.158-.533.6-.57C777.38,367.062,777.769,367.026,778.18,366.989Z" transform="translate(-21463.934 -647.27)" fill="#d3d3d0" stroke="#d3d3d1" stroke-width="1.2"/>
    <path id="Tracé_4510" data-name="Tracé 4510" d="M1005.841,424.815a2.593,2.593,0,1,1-2.572-2.6A2.587,2.587,0,0,1,1005.841,424.815Zm-.9-.009a1.694,1.694,0,1,0-1.693,1.7A1.692,1.692,0,0,0,1004.941,424.806Z" transform="translate(-21680.229 -715.975)" fill="#d3d3d0" stroke="#d3d3d1" stroke-width="1.2"/>
  </g>
</svg>
